<svg xmlns="http://www.w3.org/2000/svg" viewBox="150 230 720 520" width="720" height="520">
  <defs>
    <linearGradient id="borderGrad" x1="0" y1="0" x2="1" y2="1">
      <stop offset="0%" stop-color="#FF9E3D"/>
      <stop offset="50%" stop-color="#F26B1A"/>
      <stop offset="100%" stop-color="#B03A05"/>
    </linearGradient>
    <linearGradient id="tfGrad" x1="0.2" y1="0" x2="0.8" y2="1">
      <stop offset="0%" stop-color="#FF9E3D"/>
      <stop offset="40%" stop-color="#F26B1A"/>
      <stop offset="100%" stop-color="#A83205"/>
    </linearGradient>
    <filter id="glow" x="-15%" y="-15%" width="130%" height="130%">
      <feGaussianBlur in="SourceGraphic" stdDeviation="12" result="blur"/>
      <feColorMatrix in="blur" type="matrix" values="1 0 0 0 0  0.42 0 0 0 0  0 0 0 0 0  0 0 0 0.45 0"/>
      <feMerge><feMergeNode/><feMergeNode in="SourceGraphic"/></feMerge>
    </filter>
  </defs>
  <path d="M0 0 C2.49 -0.1 4.98 -0.12 7.46 -0.12 C9.1 -0.13 10.74 -0.13 12.43 -0.13 C13.34 -0.13 13.34 -0.13 17.96 -0.12 C19.88 -0.12 21.8 -0.12 23.78 -0.12 C29.14 -0.13 34.49 -0.12 39.85 -0.12 C45.62 -0.11 51.38 -0.11 57.15 -0.11 C67.15 -0.11 77.15 -0.11 87.15 -0.11 C101.61 -0.1 116.06 -0.1 130.52 -0.09 C153.97 -0.09 177.43 -0.08 200.88 -0.08 C223.67 -0.07 246.46 -0.06 269.25 -0.05 C270.65 -0.05 272.06 -0.05 273.5 -0.05 C280.54 -0.05 287.59 -0.05 294.63 -0.05 C353.08 -0.04 411.54 -0.02 470 0 C469.09 4.54 468.15 6.87 465.89 10.77 C465.25 11.89 464.6 13.02 463.93 14.18 C463.23 15.38 462.53 16.58 461.81 17.81 C461.1 19.05 460.38 20.3 459.64 21.58 C457.43 25.39 455.22 29.2 453 33 C452.35 34.12 451.69 35.25 451.02 36.4 C448.62 40.51 446.23 44.61 443.83 48.71 C439.66 55.84 435.58 63.02 431.57 70.25 C430 73 430 73 429 74 C425.82 74.1 422.64 74.12 419.46 74.12 C418.45 74.12 417.44 74.12 416.4 74.12 C412.97 74.12 409.55 74.12 406.12 74.11 C403.64 74.11 401.15 74.11 398.67 74.11 C392 74.11 385.32 74.11 378.64 74.1 C372.39 74.1 366.14 74.1 359.88 74.09 C341.57 74.09 323.25 74.08 304.94 74.06 C284.49 74.05 284.49 74.05 181 74 C181 184.55 181 295.1 181 409 C175.83 406.93 172.01 404.42 167.44 401.25 C166.6 400.67 165.77 400.1 164.91 399.5 C158.2 394.86 151.53 390.16 144.87 385.46 C137.03 379.97 129.05 374.67 121.04 369.42 C120.08 368.78 119.12 368.15 118.13 367.5 C117.29 366.94 116.44 366.39 115.57 365.81 C112.59 363.71 109.8 361.34 107 359 C107 264.95 107 170.9 107 74 C57.83 74 8.66 74 -42 74 C-39.97 67.9 -37.15 62.85 -33.88 57.38 C-32.61 55.23 -31.34 53.08 -30.07 50.93 C-29.41 49.81 -28.74 48.68 -28.06 47.52 C-24.55 41.52 -21.12 35.48 -17.69 29.44 C-2.13 2.13 -2.13 2.13 0 0 Z " fill="url(#tfGrad)" transform="translate(298,307)"/>
  <path d="M0 0 C24.09 0 48.18 0 73 0 C73 17.49 73 34.98 73 53 C113.59 53 154.18 53 196 53 C196.33 53.66 196.66 54.32 197 55 C189.6 68.31 182.15 81.59 174.41 94.71 C168.13 105.4 162.1 116.2 156 127 C128.61 127 101.22 127 73 127 C73 166.27 73 205.54 73 246 C65.4 251.43 57.92 256.77 50.15 261.9 C38.61 269.59 27.27 277.58 15.89 285.52 C13.27 287.35 10.63 289.18 8 291 C7.41 291.41 7.41 291.41 4.45 293.47 C2 295 2 295 0 295 C0 197.65 0 100.3 0 0 Z " fill="url(#tfGrad)" transform="translate(518,421)"/>
</svg>
