<svg xmlns="http://www.w3.org/2000/svg" width="1200" height="700" viewBox="0 0 1200 700">
  <defs>
    <linearGradient id="bg" x1="0" y1="0" x2="1" y2="1">
      <stop offset="0" stop-color="#0b1220"/>
      <stop offset="1" stop-color="#050a13"/>
    </linearGradient>
    <filter id="shadow" x="-30%" y="-30%" width="160%" height="160%">
      <feDropShadow dx="0" dy="14" stdDeviation="18" flood-color="rgba(0,0,0,0.55)"/>
    </filter>
    <style>
      .t { font-family: ui-sans-serif, system-ui, -apple-system, Segoe UI, Roboto, Helvetica, Arial; fill: rgba(255,255,255,0.92); }
      .m { fill: rgba(255,255,255,0.66); font-size: 16px; }
      .h { font-size: 26px; font-weight: 700; }
      .stroke { stroke: rgba(255,255,255,0.14); }
      .tab { fill: rgba(255,255,255,0.06); stroke: rgba(255,255,255,0.12); }
      .tabOn { fill: rgba(45,212,191,0.20); stroke: rgba(45,212,191,0.40); }
    </style>
  </defs>

  <rect x="0" y="0" width="1200" height="700" fill="url(#bg)"/>
  <circle cx="230" cy="110" r="200" fill="rgba(45,212,191,0.10)"/>
  <circle cx="1040" cy="140" r="260" fill="rgba(96,165,250,0.10)"/>

  <rect x="100" y="80" width="1000" height="540" rx="22" fill="rgba(255,255,255,0.06)" class="stroke" filter="url(#shadow)"/>
  <text x="140" y="140" class="t h">Detail stavby – záložky</text>
  <text x="140" y="170" class="t m">Po výběru stavby se zobrazí detail s horní lištou a záložkami.</text>

  <!-- Header -->
  <rect x="140" y="205" width="920" height="70" rx="18" fill="rgba(0,0,0,0.22)" class="stroke"/>
  <text x="170" y="246" class="t" font-size="18" font-weight="700">REKO bazén Aš</text>
  <text x="170" y="268" class="t m">Detail stavby</text>

  <!-- Tabs -->
  <rect x="140" y="295" width="920" height="60" rx="18" fill="rgba(0,0,0,0.18)" class="stroke"/>
  <rect x="170" y="310" width="150" height="32" rx="12" class="tabOn"/>
  <text x="212" y="332" class="t m">Přehled</text>

  <rect x="330" y="310" width="150" height="32" rx="12" class="tab"/>
  <text x="372" y="332" class="t m">Plán VŘ</text>

  <rect x="490" y="310" width="190" height="32" rx="12" class="tab"/>
  <text x="512" y="332" class="t m">Výběrová řízení</text>

  <rect x="690" y="310" width="150" height="32" rx="12" class="tab"/>
  <text x="728" y="332" class="t m">Dokumenty</text>

  <!-- Content area -->
  <rect x="140" y="370" width="920" height="230" rx="18" fill="rgba(255,255,255,0.04)" class="stroke"/>
  <text x="170" y="410" class="t m">Obsah vybrané záložky (metriky / tabulky / pipeline / dokumenty).</text>
  <text x="170" y="442" class="t m">Změny se ukládají do databáze (Supabase).</text>
</svg>

