<svg xmlns="http://www.w3.org/2000/svg" width="1200" height="700" viewBox="0 0 1200 700">
  <defs>
    <linearGradient id="bg" x1="0" y1="0" x2="1" y2="1">
      <stop offset="0" stop-color="#0b1220"/>
      <stop offset="1" stop-color="#050a13"/>
    </linearGradient>
    <filter id="shadow" x="-30%" y="-30%" width="160%" height="160%">
      <feDropShadow dx="0" dy="14" stdDeviation="18" flood-color="rgba(0,0,0,0.55)"/>
    </filter>
    <style>
      .t { font-family: ui-sans-serif, system-ui, -apple-system, Segoe UI, Roboto, Helvetica, Arial; fill: rgba(255,255,255,0.92); }
      .m { fill: rgba(255,255,255,0.66); font-size: 15px; }
      .h { font-size: 26px; font-weight: 700; }
      .cap { font-size: 12px; letter-spacing: 0.6px; text-transform: uppercase; fill: rgba(255,255,255,0.55); }
      .stroke { stroke: rgba(255,255,255,0.14); }
      .panel { fill: rgba(255,255,255,0.06); }
      .card { fill: rgba(0,0,0,0.22); }
      .chip { fill: rgba(255,255,255,0.06); stroke: rgba(255,255,255,0.12); }
      .cyan { fill: rgba(34,211,238,0.16); stroke: rgba(34,211,238,0.30); }
      .violet { fill: rgba(168,85,247,0.12); stroke: rgba(168,85,247,0.28); }
      .accent { fill: rgba(45,212,191,0.18); stroke: rgba(45,212,191,0.35); }
    </style>
  </defs>

  <rect x="0" y="0" width="1200" height="700" fill="url(#bg)"/>
  <circle cx="240" cy="120" r="200" fill="rgba(45,212,191,0.10)"/>
  <circle cx="1030" cy="110" r="260" fill="rgba(96,165,250,0.10)"/>

  <rect x="80" y="70" width="1040" height="560" rx="22" class="panel stroke" filter="url(#shadow)"/>
  <text x="120" y="130" class="t h">Správa uživatelů a rolí (Admin)</text>
  <text x="120" y="160" class="t m">Přiřazení rolí uživatelům a nastavení oprávnění rolí.</text>

  <!-- Users table -->
  <rect x="120" y="200" width="1040" height="250" rx="18" class="card stroke"/>
  <text x="150" y="238" class="t cap">Uživatelé</text>
  <rect x="150" y="256" width="420" height="34" rx="12" class="chip"/>
  <text x="165" y="279" class="t m">Hledat (email / jméno)</text>
  <rect x="590" y="256" width="240" height="34" rx="12" class="chip"/>
  <text x="605" y="279" class="t m">Doména: @firma.cz</text>

  <rect x="150" y="304" width="980" height="44" rx="12" class="chip"/>
  <text x="165" y="332" class="t m">uzivatel@firma.cz</text>
  <rect x="620" y="312" width="220" height="28" rx="10" class="cyan"/>
  <text x="635" y="332" class="t m">Role: Admin</text>
  <text x="920" y="332" class="t m">Vytvořen: 12.12.2025</text>

  <rect x="150" y="354" width="980" height="44" rx="12" class="chip"/>
  <text x="165" y="382" class="t m">kolega@firma.cz</text>
  <rect x="620" y="362" width="220" height="28" rx="10" class="chip"/>
  <text x="635" y="382" class="t m">Role: Bez role</text>
  <text x="920" y="382" class="t m">Vytvořen: 01.11.2025</text>

  <!-- Roles & permissions -->
  <rect x="120" y="470" width="1040" height="160" rx="18" class="violet stroke"/>
  <text x="150" y="504" class="t" font-size="14" font-weight="800">Role a oprávnění</text>
  <text x="150" y="528" class="t m">Rozbalte roli a zapínejte/vypínejte oprávnění (permissions).</text>
  <rect x="150" y="546" width="360" height="40" rx="12" fill="rgba(255,255,255,0.06)" class="stroke"/>
  <text x="165" y="572" class="t m">Role: Admin (rozbaleno)</text>
  <rect x="530" y="546" width="260" height="40" rx="12" class="accent"/>
  <text x="548" y="572" class="t m">✔ Správa registrací</text>
  <rect x="800" y="546" width="330" height="40" rx="12" class="accent"/>
  <text x="818" y="572" class="t m">✔ Správa uživatelů</text>
</svg>
